#!OML:ASF H:\Terrain\Patient Classification 1\Walking\liu\liu.ASF
:FULLY-SPECIFIED
:DEGREES
96
root 8.47482 16.0512 -10.748 6.13166 2.91269 -2.79758
lowerback -3.61914 -3.46796 -0.376373
upperback 0.0378477 -4.70584 4.03476
thorax 2.43738 -2.38371 4.09435
lowerneck -21.437 -2.20269 -11.5515
upperneck 19.3987 -2.13154 11.7801
head 9.95331 -0.476047 5.83659
rclavicle -6.13251e-014 3.18055e-015
rhumerus -50.6278 5.4211 -78.2002
rradius 24.8982
rwrist -10.1306
rhand -33.8685 -28.1423
rfingers 7.12502
rthumb -7.05262 -58.0048
lclavicle -6.13251e-014 3.18055e-015
lhumerus -20.5305 -16.0781 88.5692
lradius 42.3118
lwrist 12.9368
lhand -19.9683 -29.1831
lfingers 7.12502
lthumb 6.37041 0.70115
rfemur -36.4483 1.45683 27.0401
rtibia 43.7121
rfoot -13.2102 2.9704
rtoes -11.6691
lfemur 0.0987962 10.2749 -12.7723
ltibia 57.42
lfoot 2.299 11.8905
ltoes -9.0459
97
root 8.4588 16.1054 -10.5349 6.41878 3.02306 -2.9079
lowerback -3.62887 -3.31406 -0.459111
upperback -0.166678 -4.49349 4.1795
thorax 2.23388 -2.27587 4.31132
lowerneck -21.1751 -2.37786 -11.7504
upperneck 19.403 -2.34807 11.8096
head 9.93918 -0.59489 5.84724
rclavicle -2.47487e-014 -1.82882e-014
rhumerus -50.3475 5.55123 -78.3231
rradius 25.3744
rwrist -10.4944
rhand -33.3718 -28.9532
rfingers 7.12502
rthumb -6.57311 -58.8312
lclavicle -2.47487e-014 -1.82882e-014
lhumerus -21.5235 -16.5012 89.3368
lradius 42.0094
lwrist 13.0124
lhand -19.211 -28.5522
lfingers 7.12502
lthumb 7.10145 1.30869
rfemur -35.49 1.14723 27.3208
rtibia 42.9509
rfoot -13.6025 3.21984
rtoes -12.1697
lfemur -2.69165 10.2649 -12.9525
ltibia 60.2878
lfoot 0.0193692 12.5323
ltoes -10.361
98
root 8.4405 16.1632 -10.3357 6.27581 3.02539 -2.73801
lowerback -3.14647 -3.06689 -0.857039
upperback -0.140647 -4.14071 4.14314
thorax 1.98733 -2.10154 4.54575
lowerneck -21.1689 -2.65443 -11.7724
upperneck 19.3741 -2.73481 11.8398
head 9.9826 -0.772026 5.80551
rclavicle 3.68249e-014 -1.35174e-014
rhumerus -49.8798 5.61534 -78.7089
rradius 25.5083
rwrist -10.7291
rhand -33.62 -27.6249
rfingers 7.12502
rthumb -6.81274 -57.4953
lclavicle 3.68249e-014 -1.35174e-014
lhumerus -22.232 -17.2203 90.0226
lradius 41.6465
lwrist 13.2645
lhand -18.3713 -27.8854
lfingers 7.12502
lthumb 7.912 1.94651
rfemur -34.1578 0.898618 27.2732
rtibia 42.2903
rfoot -14.1685 3.485
rtoes -12.0797
lfemur -4.91276 10.2323 -13.4383
ltibia 62.6536
lfoot -2.85419 13.4583
ltoes -16.2845
99
root 8.42591 16.2365 -10.1313 6.29935 2.97171 -2.52669
lowerback -3.05666 -2.83944 -1.18311
upperback 0.0272577 -3.82621 3.99404
thorax 2.09358 -1.94994 4.59245
lowerneck -21.3832 -2.88761 -11.5189
upperneck 19.2405 -3.09266 11.7617
head 10.0194 -0.920458 5.67765
rclavicle 2.27608e-014 -9.54166e-015
rhumerus -49.0977 5.60928 -79.2828
rradius 25.8272
rwrist -10.9511
rhand -33.0668 -28.6642
rfingers 7.12502
rthumb -6.27872 -58.5511
lclavicle 2.27608e-014 -9.54166e-015
lhumerus -22.8582 -17.0411 90.5057
lradius 41.2912
lwrist 13.0232
lhand -17.7612 -27.8949
lfingers 7.12502
lthumb 8.50078 1.91395
rfemur -33.0667 0.842195 27.1245
rtibia 41.6983
rfoot -14.7693 3.62967
rtoes -12.1723
lfemur -7.21176 10.2113 -14.0654
ltibia 64.5425
lfoot -3.71132 14.1834
ltoes -14.0591
100
root 8.41547 16.2992 -9.92059 6.55285 2.76093 -2.27163
lowerback -3.22219 -2.62452 -1.62719
upperback 0.0326472 -3.52405 3.9814
thorax 2.191 -1.80513 4.84022
lowerneck -21.377 -3.05317 -11.6534
upperneck 19.1527 -3.29093 11.8298
head 10.0181 -1.01415 5.69346
rclavicle -4.70623e-014 3.57812e-014
rhumerus -48.4537 5.91113 -79.6144
rradius 26.6931
rwrist -11.7304
rhand -29.3135 -33.62
rfingers 7.12502
rthumb -2.6545 -63.5832
lclavicle -4.70623e-014 3.57812e-014
lhumerus -23.9452 -16.6177 91.3161
lradius 41.027
lwrist 12.6013
lhand -17.8999 -27.9727
lfingers 7.12502
lthumb 8.36694 1.84159
rfemur -32.1885 0.933884 26.899
rtibia 41.1197
rfoot -15.2012 3.90479
rtoes -11.3384
lfemur -9.63978 10.3683 -14.7677
ltibia 66.0761
lfoot -6.08857 14.7445
ltoes -21.1285
101
root 8.40879 16.3441 -9.70507 6.62932 2.40889 -1.87635
lowerback -3.27124 -2.41086 -2.2175
upperback 0.0275103 -3.21627 3.97056
thorax 2.21549 -1.65834 5.1807
lowerneck -21.1871 -3.16846 -12.1148
upperneck 19.1132 -3.37792 12.0711
head 9.9943 -1.06678 5.84687
rclavicle 4.47266e-016 -4.77083e-015
rhumerus -48.0209 7.03994 -80.3167
rradius 27.6681
rwrist -13.1454
rhand -26.9168 -33.1676
rfingers 7.12502
rthumb -0.339772 -63.1471
lclavicle 4.47266e-016 -4.77083e-015
lhumerus -25.1179 -16.7245 92.1463
lradius 40.7261
lwrist 12.44
lhand -18.4264 -27.5808
lfingers 7.12502
lthumb 7.8588 2.25312
rfemur -30.9576 0.90599 26.5311
rtibia 40.5026
rfoot -15.5269 4.46473
rtoes -8.94982
lfemur -11.7257 10.5187 -15.6389
ltibia 67.32
lfoot -7.41635 15.0936
ltoes -20.8206
